<svg width="60" height="60" viewBox="0 0 60 60" fill="none" xmlns="http://www.w3.org/2000/svg">
<g clip-path="url(#clip0_37_225)">
<path d="M30 0C13.4312 0 0 13.4316 0 29.9995C0 46.5682 13.4312 60 30 60C46.5687 60 60 46.5683 60 29.9995C60 13.4316 46.5688 0 30 0ZM29.9995 47.0991C21.8846 47.0955 16.0871 45.993 16.2225 44.9829C16.9597 39.4624 21.4114 38.9316 24.2384 36.6696C25.5077 35.6541 26.1247 35.9079 26.1247 34.2151C26.1247 33.623 26.1247 32.5222 26.1247 31.5068C25.3627 30.6608 25.0856 30.7665 24.4412 27.4447C23.139 27.4447 23.2229 25.7518 22.6086 24.2508C22.1293 23.0808 22.4929 22.5757 22.8949 22.3564C22.6779 21.1998 22.815 17.3162 24.4807 15.2948L24.218 13.461C24.218 13.461 24.7418 13.5923 26.0515 13.3295C27.3618 13.0685 30.5051 12.283 32.3391 13.8541C36.7403 14.5013 37.909 18.116 37.0505 22.3298C37.4721 22.5322 37.8916 23.0285 37.3904 24.2508C36.7766 25.7518 36.8605 27.4447 35.5583 27.4447C34.9143 30.7665 34.6369 30.6608 33.8748 31.5068C33.8748 32.5223 33.8748 33.623 33.8748 34.2151C33.8748 35.9079 34.4913 35.6541 35.7607 36.6696C38.588 38.9314 43.0393 39.4623 43.777 44.9829C43.9119 45.993 38.1148 47.0955 29.9995 47.0991Z" fill="#373737"/>
</g>
<defs>
<clipPath id="clip0_37_225">
<rect width="60" height="60" fill="white"/>
</clipPath>
</defs>
</svg>
