<svg width="50" height="50" viewBox="0 0 50 50" fill="none" xmlns="http://www.w3.org/2000/svg">
<path fill-rule="evenodd" clip-rule="evenodd" d="M20.7157 6.77084H29.2841C33.1129 6.7708 36.1454 6.77078 38.5187 7.08989C40.9612 7.41826 42.9383 8.11018 44.4975 9.66926C46.0564 11.2284 46.7483 13.2053 47.0768 15.6479C47.3958 18.0212 47.3958 21.0538 47.3958 24.8825V25.1175C47.3958 28.9463 47.3958 31.9788 47.0768 34.3521C46.7483 36.7946 46.0564 38.7717 44.4975 40.3308C42.9383 41.8898 40.9612 42.5817 38.5187 42.9102C36.1454 43.2292 33.1129 43.2292 29.2841 43.2292H20.7158C16.8871 43.2292 13.8545 43.2292 11.4812 42.9102C9.03863 42.5817 7.06165 41.8898 5.50254 40.3308C3.94346 38.7717 3.25154 36.7946 2.92317 34.3521C2.60406 31.9788 2.60409 28.9463 2.60413 25.1175V24.8825C2.60409 21.0538 2.60406 18.0212 2.92317 15.6479C3.25154 13.2053 3.94346 11.2284 5.50254 9.66926C7.06165 8.11018 9.03863 7.41826 11.4812 7.08989C13.8545 6.77078 16.8871 6.7708 20.7157 6.77084ZM11.8976 10.187C9.80154 10.4688 8.59394 10.9973 7.71225 11.879C6.83056 12.7607 6.30208 13.9683 6.02029 16.0643C5.73244 18.2052 5.72913 21.0275 5.72913 25C5.72913 28.9725 5.73244 31.7948 6.02029 33.9358C6.30208 36.0317 6.83056 37.2394 7.71225 38.121C8.59394 39.0027 9.80154 39.5313 11.8976 39.8129C14.0385 40.1008 16.8607 40.1042 20.8333 40.1042H29.1666C33.1391 40.1042 35.9614 40.1008 38.1025 39.8129C40.1983 39.5313 41.406 39.0027 42.2877 38.121C43.1693 37.2394 43.6979 36.0317 43.9795 33.9358C44.2675 31.7948 44.2708 28.9725 44.2708 25C44.2708 21.0275 44.2675 18.2052 43.9795 16.0643C43.6979 13.9683 43.1693 12.7607 42.2877 11.879C41.406 10.9973 40.1983 10.4688 38.1025 10.187C35.9614 9.89916 33.1391 9.89584 29.1666 9.89584H20.8333C16.8607 9.89584 14.0385 9.89916 11.8976 10.187ZM11.2996 15.6664C11.8521 15.0034 12.8373 14.9139 13.5003 15.4663L17.9979 19.2144C19.9416 20.8342 21.291 21.955 22.4304 22.6877C23.5331 23.3971 24.281 23.6352 25 23.6352C25.7189 23.6352 26.4668 23.3971 27.5695 22.6877C28.7089 21.955 30.0583 20.8342 32.002 19.2144L36.4997 15.4663C37.1627 14.9139 38.1479 15.0034 38.7004 15.6664C39.2527 16.3293 39.1631 17.3146 38.5002 17.867L33.9241 21.6804C32.0777 23.2192 30.581 24.4665 29.26 25.3161C27.8839 26.2011 26.5439 26.7602 25 26.7602C23.456 26.7602 22.116 26.2011 20.7399 25.3161C19.419 24.4665 17.9223 23.2192 16.0757 21.6804L11.4997 17.867C10.8367 17.3146 10.7472 16.3293 11.2996 15.6664Z" fill="#008542"/>
</svg>
